<svg xmlns="http://www.w3.org/2000/svg" xmlns:xlink="http://www.w3.org/1999/xlink" width="300" zoomAndPan="magnify" viewBox="0 0 224.87999 123.000003" height="164" preserveAspectRatio="xMidYMid meet" version="1.0"><defs><g/><clipPath id="9d4b93b1c3"><path d="M 159 23 L 214 23 L 214 96 L 159 96 Z M 159 23 " clip-rule="nonzero"/></clipPath><clipPath id="28d6a79204"><path d="M 175.734375 21.085938 L 218.460938 33.992188 L 198.667969 99.511719 L 155.941406 86.605469 Z M 175.734375 21.085938 " clip-rule="nonzero"/></clipPath><clipPath id="fff12c1e46"><path d="M 175.734375 21.085938 L 218.460938 33.992188 L 198.667969 99.511719 L 155.941406 86.605469 Z M 175.734375 21.085938 " clip-rule="nonzero"/></clipPath></defs><g fill="#e2f1e7" fill-opacity="1"><g transform="translate(19.898094, 92.875399)"><g><path d="M 21.578125 -71.78125 L 21.578125 0 L 5.21875 0 L 5.21875 -71.78125 Z M 21.578125 -71.78125 "/></g></g></g><g fill="#e2f1e7" fill-opacity="1"><g transform="translate(51.048157, 92.875399)"><g><path d="M 21.578125 -71.78125 L 21.578125 -14.359375 L 46.296875 -14.359375 L 46.296875 0 L 5.21875 0 L 5.21875 -71.78125 Z M 21.578125 -71.78125 "/></g></g></g><g fill="#e2f1e7" fill-opacity="1"><g transform="translate(104.560129, 92.875399)"><g><path d="M -2.609375 -71.78125 L 17.0625 -71.78125 L 32.015625 -48.8125 L 46.984375 -71.78125 L 66.65625 -71.78125 L 40.203125 -32.203125 L 40.203125 0 L 23.84375 0 L 23.84375 -32.203125 Z M -2.609375 -71.78125 "/></g></g></g><g clip-path="url(#9d4b93b1c3)"><g clip-path="url(#28d6a79204)"><g clip-path="url(#fff12c1e46)"><path fill="#e2f1e7" d="M 183.945312 23.6875 C 183.9375 23.710938 183.90625 23.726562 183.855469 23.714844 C 183.800781 23.722656 183.757812 23.683594 183.664062 23.628906 C 183.625 23.589844 183.597656 23.582031 183.582031 23.550781 C 183.574219 23.574219 183.574219 23.574219 183.566406 23.597656 C 183.558594 23.625 183.503906 23.632812 183.429688 23.609375 C 183.347656 23.613281 183.148438 23.554688 182.796875 23.472656 C 182.445312 23.394531 182.15625 23.363281 181.90625 23.394531 C 181.636719 23.394531 181.472656 23.398438 181.375 23.367188 C 181.300781 23.34375 181.21875 23.347656 181.1875 23.363281 C 181.152344 23.382812 181.097656 23.390625 181 23.363281 C 180.898438 23.332031 180.730469 23.363281 180.460938 23.441406 C 180.171875 23.515625 179.894531 23.539062 179.625 23.539062 C 179.332031 23.53125 179.160156 23.5625 179.054688 23.636719 C 178.953125 23.714844 178.871094 23.714844 178.820312 23.699219 C 178.78125 23.660156 178.691406 23.6875 178.554688 23.78125 C 178.425781 23.851562 178.304688 23.894531 178.25 23.90625 C 178.167969 23.90625 178.070312 23.960938 177.941406 24.027344 C 177.835938 24.105469 177.714844 24.148438 177.636719 24.152344 C 177.554688 24.152344 177.457031 24.203125 177.378906 24.289062 C 177.296875 24.371094 177.195312 24.449219 177.007812 24.527344 C 176.847656 24.613281 176.746094 24.691406 176.710938 24.707031 C 176.699219 24.757812 176.609375 24.785156 176.46875 24.796875 C 176.355469 24.816406 176.261719 24.867188 176.214844 24.933594 C 176.167969 25 176.085938 25.085938 175.957031 25.152344 C 175.855469 25.230469 175.78125 25.289062 175.761719 25.363281 C 175.738281 25.4375 175.671875 25.472656 175.578125 25.523438 C 175.480469 25.574219 175.402344 25.660156 175.28125 25.785156 C 175.1875 25.917969 175.109375 26 175.046875 26.035156 C 174.980469 26.070312 174.941406 26.113281 174.917969 26.1875 C 174.898438 26.261719 174.863281 26.277344 174.832031 26.292969 C 174.800781 26.3125 174.769531 26.328125 174.746094 26.402344 C 174.722656 26.476562 174.683594 26.519531 174.652344 26.535156 C 174.585938 26.570312 174.566406 26.644531 174.527344 26.769531 C 174.488281 26.890625 174.394531 27.023438 174.277344 27.152344 C 174.125 27.292969 174.042969 27.484375 173.96875 27.730469 C 173.894531 27.976562 173.824219 28.117188 173.785156 28.160156 C 173.742188 28.203125 173.691406 28.292969 173.644531 28.441406 C 173.625 28.597656 173.539062 28.789062 173.410156 29.042969 C 173.277344 29.300781 173.191406 29.492188 173.148438 29.636719 C 173.105469 29.785156 173.097656 29.894531 173.09375 30 C 173.113281 30.113281 173.082031 30.210938 173.011719 30.269531 C 172.996094 30.320312 172.941406 30.410156 172.929688 30.542969 C 172.890625 30.664062 172.871094 30.738281 172.835938 30.757812 C 172.804688 30.773438 172.753906 31.027344 172.664062 31.511719 C 172.570312 31.996094 172.519531 32.25 172.480469 32.292969 C 172.449219 32.308594 172.394531 32.402344 172.351562 32.550781 C 172.304688 32.699219 172.308594 32.777344 172.324219 32.8125 C 172.34375 32.84375 172.320312 33 172.265625 33.277344 C 172.199219 33.582031 172.125 33.828125 172.027344 34.066406 C 171.933594 34.28125 171.90625 34.464844 171.933594 34.550781 C 171.953125 34.664062 171.933594 34.820312 171.847656 35.011719 C 171.765625 35.203125 171.710938 35.375 171.730469 35.488281 C 171.75 35.601562 171.714844 35.804688 171.644531 36.136719 C 171.570312 36.464844 171.46875 36.808594 171.355469 37.179688 C 171.21875 37.542969 171.175781 37.773438 171.21875 37.8125 C 171.261719 37.851562 171.261719 37.933594 171.21875 38.082031 C 171.171875 38.230469 171.109375 38.34375 171.058594 38.4375 C 171.003906 38.527344 170.964844 38.652344 170.96875 38.8125 C 170.972656 38.976562 170.925781 39.230469 170.800781 39.542969 C 170.679688 39.859375 170.652344 40.039062 170.6875 40.101562 C 170.722656 40.167969 170.699219 40.242188 170.636719 40.355469 C 170.574219 40.472656 170.539062 40.597656 170.550781 40.734375 C 170.539062 40.867188 170.511719 41.046875 170.425781 41.234375 C 170.34375 41.425781 170.289062 41.597656 170.316406 41.6875 C 170.34375 41.777344 170.304688 41.902344 170.253906 42.074219 C 170.203125 42.246094 170.171875 42.34375 170.183594 42.402344 C 170.191406 42.457031 170.15625 42.582031 170.070312 42.773438 C 169.984375 42.960938 169.941406 43.109375 169.960938 43.222656 C 169.980469 43.335938 169.933594 43.484375 169.875 43.683594 C 169.816406 43.878906 169.753906 43.996094 169.699219 44.089844 C 169.652344 44.15625 169.628906 44.230469 169.640625 44.285156 C 169.648438 44.34375 169.660156 44.398438 169.683594 44.40625 C 169.683594 44.40625 169.707031 44.414062 169.734375 44.421875 C 169.703125 44.519531 169.640625 44.636719 169.613281 44.734375 C 169.542969 44.957031 169.460938 45.230469 169.421875 45.539062 C 169.382812 45.851562 169.363281 46.007812 169.332031 46.023438 C 169.296875 46.042969 169.253906 46.1875 169.179688 46.4375 C 169.105469 46.683594 169.085938 46.839844 169.09375 46.894531 C 169.105469 46.953125 169.082031 47.027344 169.035156 47.175781 C 168.992188 47.324219 168.964844 47.503906 168.945312 47.738281 C 168.929688 47.976562 168.894531 48.261719 168.792969 48.609375 C 168.6875 48.953125 168.660156 49.136719 168.675781 49.167969 C 168.695312 49.199219 168.679688 49.25 168.632812 49.316406 C 168.585938 49.382812 168.554688 49.480469 168.597656 49.601562 C 168.625 49.691406 168.628906 49.773438 168.570312 49.78125 C 168.539062 49.800781 168.503906 49.921875 168.449219 50.09375 C 168.398438 50.269531 168.359375 50.390625 168.363281 50.472656 C 168.367188 50.554688 168.359375 50.578125 168.382812 50.585938 C 168.40625 50.59375 168.40625 50.59375 168.433594 50.601562 C 168.386719 50.667969 168.371094 50.71875 168.324219 50.785156 C 168.261719 50.902344 168.226562 51.105469 168.1875 51.417969 C 168.179688 51.710938 168.136719 51.941406 168.074219 52.054688 C 168.011719 52.171875 168 52.304688 168.019531 52.417969 C 168.039062 52.53125 167.992188 52.679688 167.925781 52.902344 C 167.835938 53.117188 167.820312 53.246094 167.839844 53.359375 C 167.867188 53.449219 167.855469 53.578125 167.800781 53.671875 C 167.746094 53.761719 167.703125 53.992188 167.664062 54.304688 C 167.648438 54.621094 167.582031 54.84375 167.53125 55.015625 C 167.476562 55.191406 167.441406 55.3125 167.472656 55.378906 C 167.507812 55.441406 167.464844 55.589844 167.410156 55.761719 C 167.359375 55.9375 167.308594 56.109375 167.3125 56.269531 C 167.316406 56.433594 167.296875 56.589844 167.21875 56.753906 C 167.167969 56.929688 167.136719 57.027344 167.164062 57.117188 C 167.191406 57.203125 167.164062 57.386719 167.089844 57.632812 C 167.015625 57.878906 167.003906 58.089844 166.992188 58.222656 C 167.011719 58.335938 166.988281 58.410156 166.957031 58.425781 C 166.933594 58.417969 166.902344 58.519531 166.90625 58.683594 C 166.910156 58.84375 166.882812 58.945312 166.851562 58.960938 C 166.808594 59.003906 166.777344 59.207031 166.753906 59.632812 C 166.710938 60.050781 166.65625 60.410156 166.566406 60.707031 C 166.476562 61.003906 166.441406 61.207031 166.46875 61.296875 C 166.496094 61.386719 166.480469 61.515625 166.421875 61.632812 C 166.375 61.78125 166.332031 61.929688 166.335938 62.09375 C 166.339844 62.253906 166.3125 62.433594 166.242188 62.574219 C 166.171875 62.714844 166.152344 62.871094 166.183594 63.042969 C 166.210938 63.214844 166.167969 63.363281 166.121094 63.507812 C 166.054688 63.648438 166.039062 63.78125 166.035156 63.886719 C 166.03125 63.992188 166.039062 64.050781 166.066406 64.058594 C 166.089844 64.066406 166.097656 64.121094 166.125 64.210938 C 166.152344 64.300781 166.117188 64.421875 166.0625 64.597656 C 166.019531 64.746094 166.007812 64.875 166.03125 64.964844 C 166.058594 65.054688 166.046875 65.183594 166.027344 65.339844 C 165.976562 65.511719 165.996094 65.625 166.03125 65.691406 C 166.0625 65.753906 166.074219 65.8125 166.035156 65.855469 C 165.996094 65.894531 165.996094 65.976562 166.039062 66.097656 C 166.085938 66.21875 166.074219 66.351562 166.058594 66.480469 C 166.039062 66.636719 166.050781 66.695312 166.074219 66.699219 C 166.097656 66.707031 166.125 66.796875 166.148438 66.992188 C 166.167969 67.1875 166.242188 67.398438 166.34375 67.589844 C 166.449219 67.785156 166.515625 67.914062 166.5 67.960938 C 166.511719 68.019531 166.582031 68.148438 166.75 68.386719 C 166.921875 68.625 167.105469 68.816406 167.28125 68.953125 C 167.457031 69.085938 167.558594 69.195312 167.566406 69.253906 C 167.578125 69.308594 167.800781 69.457031 168.222656 69.667969 C 168.644531 69.875 169.210938 70.046875 169.902344 70.175781 C 170.589844 70.300781 171.097656 70.320312 171.382812 70.269531 C 171.671875 70.195312 171.898438 70.15625 172.054688 70.179688 C 172.21875 70.171875 172.390625 70.144531 172.574219 70.066406 C 172.761719 69.988281 172.90625 69.949219 172.988281 69.949219 C 173.070312 69.945312 173.191406 69.902344 173.320312 69.832031 C 173.421875 69.757812 173.496094 69.695312 173.5 69.671875 C 173.507812 69.648438 173.515625 69.621094 173.515625 69.621094 C 173.542969 69.628906 173.566406 69.636719 173.566406 69.636719 C 173.589844 69.644531 173.710938 69.601562 173.898438 69.523438 C 174.082031 69.445312 174.1875 69.367188 174.226562 69.324219 C 174.25 69.25 174.304688 69.242188 174.363281 69.230469 C 174.417969 69.222656 174.457031 69.179688 174.511719 69.089844 C 174.566406 68.996094 174.605469 68.957031 174.65625 68.96875 C 174.707031 68.984375 174.753906 68.917969 174.832031 68.835938 C 174.886719 68.742188 174.949219 68.707031 175.015625 68.675781 C 175.070312 68.664062 175.136719 68.628906 175.199219 68.515625 C 175.277344 68.429688 175.316406 68.386719 175.382812 68.355469 C 175.414062 68.335938 175.492188 68.253906 175.625 68.078125 C 175.761719 67.902344 175.839844 67.820312 175.929688 67.792969 C 176.015625 67.765625 176.070312 67.671875 176.148438 67.507812 C 176.226562 67.34375 176.320312 67.210938 176.449219 67.140625 C 176.578125 67.070312 176.679688 66.914062 176.789062 66.730469 C 176.902344 66.523438 176.964844 66.40625 177.039062 66.347656 C 177.109375 66.289062 177.195312 66.179688 177.296875 66.023438 C 177.40625 65.839844 177.453125 65.773438 177.503906 65.789062 C 177.527344 65.796875 177.597656 65.65625 177.730469 65.398438 C 177.84375 65.109375 177.945312 64.953125 178 64.859375 C 178.078125 64.777344 178.125 64.710938 178.183594 64.699219 C 178.238281 64.691406 178.300781 64.574219 178.351562 64.402344 C 178.382812 64.304688 178.414062 64.203125 178.433594 64.132812 C 178.460938 64.136719 178.460938 64.136719 178.484375 64.144531 C 178.507812 64.152344 178.609375 63.996094 178.765625 63.664062 C 178.941406 63.339844 179.066406 63.109375 179.179688 63.007812 C 179.289062 62.90625 179.328125 62.785156 179.351562 62.710938 C 179.355469 62.605469 179.441406 62.496094 179.566406 62.34375 C 179.695312 62.195312 179.808594 61.988281 179.886719 61.738281 C 179.992188 61.476562 180.078125 61.285156 180.195312 61.160156 C 180.3125 61.035156 180.351562 60.910156 180.382812 60.8125 C 180.410156 60.714844 180.464844 60.621094 180.542969 60.539062 C 180.648438 60.460938 180.71875 60.320312 180.785156 60.097656 C 180.851562 59.875 180.914062 59.761719 180.960938 59.695312 C 181.007812 59.628906 181.109375 59.46875 181.230469 59.15625 C 181.351562 58.84375 181.460938 58.660156 181.542969 58.578125 C 181.621094 58.492188 181.675781 58.402344 181.699219 58.328125 C 181.710938 58.277344 181.726562 58.226562 181.734375 58.203125 C 181.710938 58.195312 181.703125 58.222656 181.703125 58.222656 C 181.679688 58.214844 181.679688 58.214844 181.644531 58.230469 C 181.652344 58.207031 181.652344 58.207031 181.660156 58.179688 C 181.667969 58.15625 181.714844 58.089844 181.792969 58.007812 C 181.875 57.921875 181.933594 57.804688 181.941406 57.699219 C 181.945312 57.59375 181.984375 57.550781 182.015625 57.535156 C 182.050781 57.515625 182.066406 57.46875 182.101562 57.34375 C 182.140625 57.222656 182.203125 57.105469 182.320312 56.980469 C 182.4375 56.855469 182.507812 56.714844 182.546875 56.589844 C 182.582031 56.464844 182.636719 56.375 182.675781 56.332031 C 182.710938 56.316406 182.746094 56.191406 182.78125 55.988281 C 182.816406 55.78125 182.855469 55.660156 182.910156 55.648438 C 182.941406 55.632812 183.027344 55.523438 183.121094 55.308594 C 183.214844 55.09375 183.273438 54.976562 183.308594 54.960938 C 183.339844 54.945312 183.355469 54.894531 183.375 54.820312 C 183.375 54.738281 183.421875 54.671875 183.492188 54.613281 C 183.566406 54.554688 183.625 54.4375 183.652344 54.257812 C 183.683594 54.078125 183.710938 53.976562 183.777344 53.945312 C 183.839844 53.910156 183.886719 53.84375 183.90625 53.6875 C 183.925781 53.53125 183.988281 53.414062 184.070312 53.332031 C 184.15625 53.222656 184.226562 53.082031 184.265625 52.851562 C 184.308594 52.625 184.363281 52.53125 184.390625 52.539062 C 184.445312 52.53125 184.476562 52.511719 184.492188 52.464844 C 184.507812 52.414062 184.578125 52.273438 184.660156 52 C 184.742188 51.730469 184.832031 51.515625 184.917969 51.324219 C 185 51.136719 185.089844 51.027344 185.136719 50.960938 C 185.207031 50.902344 185.296875 50.6875 185.425781 50.265625 C 185.578125 49.855469 185.644531 49.632812 185.699219 49.621094 C 185.734375 49.605469 185.796875 49.570312 185.8125 49.519531 C 185.835938 49.445312 185.863281 49.347656 185.878906 49.21875 C 185.898438 49.0625 185.972656 48.898438 186.109375 48.722656 C 186.242188 48.546875 186.386719 48.238281 186.515625 47.820312 C 186.632812 47.425781 186.734375 47.1875 186.796875 47.152344 C 186.871094 47.09375 186.90625 46.96875 186.980469 46.722656 C 187.054688 46.476562 187.132812 46.308594 187.1875 46.21875 C 187.242188 46.128906 187.320312 45.960938 187.378906 45.765625 C 187.4375 45.566406 187.5 45.449219 187.546875 45.382812 C 187.59375 45.316406 187.71875 45.085938 187.882812 44.625 C 188.050781 44.164062 188.234375 43.734375 188.441406 43.3125 C 188.652344 42.890625 188.765625 42.601562 188.808594 42.453125 C 188.855469 42.304688 188.890625 42.179688 188.964844 42.121094 C 189.011719 42.054688 189.074219 41.9375 189.09375 41.785156 C 189.113281 41.628906 189.15625 41.480469 189.210938 41.386719 C 189.265625 41.296875 189.3125 41.230469 189.347656 41.214844 C 189.378906 41.195312 189.433594 41.105469 189.460938 40.925781 C 189.511719 40.75 189.550781 40.628906 189.613281 40.511719 C 189.667969 40.421875 189.6875 40.347656 189.671875 40.316406 C 189.652344 40.28125 189.652344 40.199219 189.679688 40.101562 C 189.710938 40.003906 189.765625 39.910156 189.796875 39.894531 C 189.835938 39.851562 189.875 39.730469 189.933594 39.53125 C 189.976562 39.300781 190.082031 39.039062 190.210938 38.699219 C 190.367188 38.371094 190.464844 38.046875 190.546875 37.777344 C 190.601562 37.496094 190.679688 37.332031 190.710938 37.316406 C 190.746094 37.296875 190.757812 37.25 190.757812 37.167969 C 190.753906 37.085938 190.769531 37.035156 190.808594 36.996094 C 190.847656 36.953125 190.902344 36.78125 191.003906 36.433594 C 191.109375 36.089844 191.144531 35.882812 191.140625 35.800781 C 191.121094 35.6875 191.183594 35.492188 191.285156 35.144531 C 191.410156 34.832031 191.527344 34.167969 191.65625 33.210938 C 191.785156 32.25 191.851562 31.757812 191.816406 31.695312 C 191.808594 31.636719 191.796875 31.582031 191.820312 31.507812 C 191.84375 31.433594 191.839844 31.351562 191.789062 31.253906 C 191.738281 31.160156 191.734375 31.078125 191.738281 30.972656 C 191.746094 30.863281 191.726562 30.75 191.691406 30.6875 C 191.65625 30.621094 191.644531 30.484375 191.640625 30.320312 C 191.652344 30.191406 191.617188 30.042969 191.515625 29.933594 C 191.445312 29.804688 191.324219 29.578125 191.234375 29.253906 C 191.144531 28.933594 191.03125 28.683594 190.9375 28.546875 C 190.84375 28.410156 190.757812 28.332031 190.71875 28.292969 C 190.652344 28.246094 190.589844 28.171875 190.53125 28.019531 C 190.46875 27.867188 190.332031 27.691406 190.105469 27.460938 C 189.878906 27.230469 189.785156 27.09375 189.777344 27.039062 C 189.765625 26.980469 189.707031 26.910156 189.589844 26.847656 C 189.476562 26.785156 189.410156 26.738281 189.414062 26.714844 C 189.421875 26.6875 189.421875 26.6875 189.429688 26.664062 C 189.40625 26.65625 189.382812 26.648438 189.355469 26.640625 C 189.308594 26.625 189.265625 26.585938 189.25 26.554688 C 189.214844 26.488281 189.164062 26.476562 189.089844 26.453125 C 189.015625 26.429688 188.933594 26.351562 188.855469 26.246094 C 188.785156 26.117188 188.703125 26.039062 188.585938 25.976562 C 188.472656 25.914062 188.386719 25.835938 188.304688 25.757812 C 188.21875 25.679688 188.070312 25.550781 187.828125 25.453125 C 187.566406 25.347656 187.414062 25.21875 187.308594 25.132812 C 187.207031 25.023438 187.015625 24.9375 186.75 24.832031 C 186.488281 24.722656 186.320312 24.648438 186.3125 24.589844 C 186.300781 24.53125 186.203125 24.503906 186.054688 24.457031 C 185.90625 24.414062 185.742188 24.335938 185.589844 24.210938 C 185.441406 24.085938 185.269531 24.03125 185.089844 24.003906 C 184.90625 23.976562 184.808594 23.949219 184.816406 23.921875 C 184.800781 23.890625 184.683594 23.828125 184.410156 23.746094 C 184.289062 23.710938 184.171875 23.648438 184.023438 23.601562 C 183.953125 23.660156 183.953125 23.660156 183.945312 23.6875 Z M 207.695312 40.585938 C 207.660156 40.601562 207.480469 40.574219 207.121094 40.519531 C 206.792969 40.449219 206.605469 40.445312 206.597656 40.46875 C 206.589844 40.496094 206.484375 40.488281 206.285156 40.429688 C 206.089844 40.371094 205.949219 40.382812 205.917969 40.398438 C 205.855469 40.433594 205.746094 40.429688 205.59375 40.410156 C 205.410156 40.382812 205.324219 40.410156 205.28125 40.449219 C 205.242188 40.492188 205.121094 40.535156 204.902344 40.550781 C 204.683594 40.566406 204.519531 40.570312 204.386719 40.558594 C 204.234375 40.539062 204.152344 40.539062 204.054688 40.589844 C 203.957031 40.644531 203.84375 40.664062 203.699219 40.699219 C 203.527344 40.730469 203.441406 40.757812 203.433594 40.78125 C 203.398438 40.796875 203.277344 40.84375 203.050781 40.882812 C 202.832031 40.894531 202.710938 40.941406 202.671875 40.980469 C 202.664062 41.007812 202.574219 41.035156 202.429688 41.070312 C 202.308594 41.113281 202.21875 41.140625 202.179688 41.183594 C 202.164062 41.234375 202.011719 41.292969 201.726562 41.34375 C 201.46875 41.398438 201.3125 41.460938 201.332031 41.492188 C 201.347656 41.523438 201.257812 41.550781 201.128906 41.621094 C 201.007812 41.664062 200.90625 41.742188 200.859375 41.808594 C 200.8125 41.875 200.78125 41.890625 200.730469 41.878906 C 200.679688 41.863281 200.640625 41.902344 200.570312 41.964844 C 200.496094 42.023438 200.394531 42.097656 200.304688 42.125 C 200.207031 42.175781 200.121094 42.203125 200.070312 42.269531 C 200.023438 42.335938 199.953125 42.398438 199.832031 42.441406 C 199.710938 42.484375 199.558594 42.628906 199.355469 42.863281 C 199.148438 43.097656 198.992188 43.265625 198.863281 43.332031 C 198.726562 43.425781 198.65625 43.484375 198.648438 43.511719 C 198.640625 43.535156 198.632812 43.558594 198.632812 43.558594 C 198.605469 43.554688 198.605469 43.554688 198.605469 43.554688 C 198.582031 43.546875 198.535156 43.613281 198.433594 43.769531 C 198.339844 43.902344 198.253906 44.011719 198.1875 44.046875 C 198.101562 44.074219 198.058594 44.113281 198.039062 44.1875 C 198.015625 44.261719 197.976562 44.304688 197.878906 44.355469 C 197.78125 44.410156 197.722656 44.523438 197.605469 44.730469 C 197.496094 44.914062 197.300781 45.207031 197 45.574219 C 196.699219 45.941406 196.519531 46.183594 196.484375 46.304688 C 196.414062 46.445312 196.328125 46.554688 196.222656 46.632812 C 196.085938 46.726562 196.039062 46.792969 196.042969 46.871094 C 196.042969 46.953125 196.035156 46.980469 195.972656 47.011719 C 195.933594 47.054688 195.800781 47.230469 195.605469 47.601562 C 195.417969 47.953125 195.277344 48.152344 195.214844 48.183594 C 195.148438 48.21875 195.054688 48.351562 194.964844 48.566406 C 194.871094 48.78125 194.769531 48.941406 194.722656 49.007812 C 194.675781 49.074219 194.597656 49.15625 194.578125 49.3125 C 194.539062 49.4375 194.511719 49.535156 194.453125 49.546875 C 194.414062 49.585938 194.304688 49.769531 194.136719 50.148438 C 193.96875 50.53125 193.851562 50.738281 193.8125 50.777344 C 193.773438 50.820312 193.730469 50.863281 193.726562 50.96875 C 193.730469 51.050781 193.644531 51.242188 193.472656 51.539062 C 193.300781 51.835938 193.21875 52.027344 193.1875 52.125 C 193.191406 52.207031 193.128906 52.324219 193.015625 52.425781 C 192.90625 52.527344 192.84375 52.640625 192.832031 52.773438 C 192.820312 52.902344 192.773438 52.96875 192.746094 52.964844 C 192.714844 52.980469 192.660156 53.070312 192.601562 53.269531 C 192.542969 53.464844 192.480469 53.582031 192.480469 53.582031 C 192.445312 53.601562 192.441406 53.625 192.425781 53.675781 C 192.410156 53.722656 192.378906 53.820312 192.277344 53.980469 C 192.175781 54.136719 192.105469 54.277344 192.046875 54.476562 C 192.019531 54.574219 191.988281 54.671875 191.964844 54.746094 C 191.941406 54.738281 191.941406 54.738281 191.941406 54.738281 C 191.917969 54.734375 191.863281 54.824219 191.808594 54.996094 C 191.757812 55.167969 191.664062 55.304688 191.585938 55.386719 C 191.503906 55.46875 191.429688 55.636719 191.351562 55.882812 C 191.277344 56.128906 191.210938 56.269531 191.167969 56.3125 C 191.105469 56.347656 191.066406 56.46875 191.023438 56.617188 C 190.996094 56.796875 190.925781 56.9375 190.847656 57.023438 C 190.761719 57.132812 190.683594 57.296875 190.601562 57.570312 C 190.519531 57.839844 190.433594 58.03125 190.398438 58.152344 C 190.335938 58.269531 190.289062 58.335938 190.265625 58.328125 C 190.230469 58.347656 190.164062 58.488281 190.074219 58.78125 C 189.984375 59.078125 189.914062 59.21875 189.855469 59.230469 C 189.824219 59.246094 189.722656 59.40625 189.613281 59.773438 C 189.476562 60.136719 189.382812 60.351562 189.320312 60.386719 C 189.246094 60.445312 189.179688 60.585938 189.078125 60.828125 C 188.980469 61.066406 188.910156 61.207031 188.871094 61.25 C 188.804688 61.28125 188.738281 61.503906 188.628906 61.875 C 188.515625 62.246094 188.429688 62.4375 188.390625 62.476562 C 188.335938 62.488281 188.273438 62.601562 188.21875 62.777344 C 188.167969 62.949219 188.082031 63.058594 188.042969 63.097656 C 188.003906 63.140625 187.972656 63.238281 187.960938 63.371094 C 187.945312 63.5 187.910156 63.625 187.824219 63.734375 C 187.738281 63.84375 187.628906 64.023438 187.554688 64.273438 C 187.476562 64.519531 187.394531 64.707031 187.308594 64.816406 C 187.21875 64.925781 187.160156 65.042969 187.136719 65.199219 C 187.109375 65.378906 187.050781 65.492188 187 65.558594 C 186.921875 65.644531 186.894531 65.742188 186.855469 65.867188 C 186.816406 65.988281 186.765625 66.082031 186.722656 66.121094 C 186.652344 66.183594 186.628906 66.257812 186.617188 66.386719 C 186.605469 66.519531 186.566406 66.640625 186.472656 66.773438 C 186.378906 66.90625 186.226562 67.238281 186.023438 67.824219 C 185.792969 68.402344 185.65625 68.765625 185.570312 68.871094 C 185.507812 68.988281 185.445312 69.105469 185.433594 69.234375 C 185.429688 69.339844 185.375 69.433594 185.335938 69.476562 C 185.261719 69.535156 185.160156 69.878906 184.964844 70.523438 C 184.796875 71.171875 184.660156 71.535156 184.597656 71.648438 C 184.535156 71.765625 184.488281 71.832031 184.460938 71.824219 C 184.429688 71.84375 184.378906 72.015625 184.265625 72.386719 C 184.15625 72.753906 184.121094 72.960938 184.105469 73.011719 C 184.113281 73.066406 184.085938 73.164062 184.023438 73.363281 C 183.964844 73.558594 183.9375 73.660156 183.953125 73.691406 C 183.96875 73.722656 183.957031 73.855469 183.890625 74.078125 C 183.839844 74.332031 183.820312 74.488281 183.832031 74.542969 C 183.839844 74.601562 183.835938 74.789062 183.792969 75.019531 C 183.753906 75.246094 183.757812 75.410156 183.773438 75.441406 C 183.816406 75.480469 183.84375 75.570312 183.878906 75.71875 C 183.917969 75.863281 183.902344 75.992188 183.882812 76.148438 C 183.863281 76.304688 183.90625 76.425781 183.976562 76.554688 C 184.046875 76.683594 184.113281 76.8125 184.128906 76.949219 C 184.140625 77.089844 184.199219 77.242188 184.304688 77.433594 C 184.40625 77.628906 184.507812 77.738281 184.59375 77.816406 C 184.675781 77.898438 184.734375 77.96875 184.761719 78.058594 C 184.789062 78.148438 184.824219 78.210938 184.921875 78.242188 C 184.988281 78.289062 185.054688 78.335938 185.082031 78.425781 C 185.109375 78.511719 185.195312 78.59375 185.328125 78.6875 C 185.46875 78.753906 185.570312 78.867188 185.660156 79.003906 C 185.730469 79.132812 185.929688 79.273438 186.230469 79.445312 C 186.527344 79.613281 186.6875 79.714844 186.71875 79.78125 C 186.753906 79.84375 186.820312 79.890625 186.953125 79.90625 C 187.082031 79.917969 187.175781 79.972656 187.234375 80.042969 C 187.292969 80.117188 187.425781 80.210938 187.617188 80.292969 C 187.804688 80.378906 188.070312 80.484375 188.441406 80.597656 C 188.8125 80.707031 189.058594 80.785156 189.1875 80.796875 C 189.328125 80.785156 189.410156 80.78125 189.414062 80.757812 C 189.421875 80.730469 189.53125 80.738281 189.75 80.804688 C 189.957031 80.839844 190.082031 80.875 190.121094 80.835938 C 190.152344 80.816406 190.183594 80.800781 190.203125 80.832031 C 190.21875 80.863281 190.308594 80.835938 190.476562 80.808594 C 190.648438 80.777344 190.785156 80.765625 190.917969 80.78125 C 191.046875 80.792969 191.136719 80.765625 191.210938 80.707031 C 191.257812 80.640625 191.320312 80.605469 191.394531 80.628906 C 191.46875 80.648438 191.597656 80.582031 191.789062 80.476562 C 191.984375 80.375 192.105469 80.328125 192.1875 80.328125 C 192.265625 80.324219 192.355469 80.296875 192.515625 80.210938 C 192.679688 80.125 192.78125 80.050781 192.796875 80 C 192.835938 79.957031 192.867188 79.941406 192.925781 79.929688 C 192.980469 79.921875 193.015625 79.902344 193.027344 79.855469 C 193.042969 79.804688 193.082031 79.761719 193.164062 79.761719 C 193.253906 79.734375 193.292969 79.691406 193.339844 79.625 C 193.386719 79.558594 193.460938 79.5 193.546875 79.472656 C 193.636719 79.445312 193.714844 79.363281 193.765625 79.296875 C 193.8125 79.230469 193.914062 79.152344 194.0625 79.117188 C 194.214844 79.054688 194.308594 79.003906 194.339844 78.902344 C 194.371094 78.804688 194.441406 78.746094 194.539062 78.695312 C 194.632812 78.640625 194.691406 78.632812 194.675781 78.601562 C 194.683594 78.574219 194.65625 78.570312 194.664062 78.542969 C 194.664062 78.542969 194.6875 78.550781 194.6875 78.550781 C 194.714844 78.558594 194.753906 78.515625 194.839844 78.410156 C 194.894531 78.316406 194.972656 78.234375 195.039062 78.199219 C 195.101562 78.164062 195.222656 78.039062 195.363281 77.839844 C 195.503906 77.640625 195.613281 77.539062 195.679688 77.503906 C 195.742188 77.46875 195.789062 77.402344 195.835938 77.335938 C 195.890625 77.246094 195.957031 77.210938 196.019531 77.175781 C 196.109375 77.148438 196.15625 77.082031 196.179688 77.007812 C 196.203125 76.933594 196.320312 76.808594 196.511719 76.621094 C 196.703125 76.4375 196.828125 76.289062 196.882812 76.195312 C 196.9375 76.105469 197.015625 76.019531 197.113281 75.96875 C 197.207031 75.917969 197.296875 75.808594 197.398438 75.652344 C 197.5 75.492188 197.585938 75.386719 197.65625 75.324219 C 197.753906 75.273438 197.808594 75.183594 197.839844 75.085938 C 197.890625 74.992188 197.914062 74.917969 197.941406 74.925781 C 197.964844 74.933594 198.035156 74.875 198.121094 74.765625 C 198.234375 74.664062 198.289062 74.574219 198.277344 74.515625 C 198.269531 74.460938 198.300781 74.441406 198.332031 74.425781 C 198.382812 74.441406 198.429688 74.375 198.492188 74.257812 C 198.554688 74.140625 198.625 74.082031 198.671875 74.015625 C 198.738281 73.980469 198.785156 73.914062 198.847656 73.800781 C 198.898438 73.707031 198.953125 73.617188 198.996094 73.574219 C 199.058594 73.539062 199.074219 73.492188 199.082031 73.464844 C 199.089844 73.441406 199.070312 73.410156 199.070312 73.410156 C 199.097656 73.417969 199.097656 73.417969 199.121094 73.425781 C 199.144531 73.429688 199.175781 73.414062 199.25 73.355469 C 199.296875 73.289062 199.382812 73.179688 199.453125 73.039062 C 199.523438 72.898438 199.648438 72.75 199.742188 72.613281 C 199.859375 72.488281 199.90625 72.421875 199.933594 72.429688 C 199.957031 72.4375 200.011719 72.347656 200.113281 72.1875 C 200.214844 72.03125 200.269531 71.9375 200.292969 71.945312 C 200.320312 71.953125 200.320312 71.953125 200.320312 71.953125 C 200.328125 71.929688 200.339844 71.878906 200.347656 71.855469 C 200.371094 71.78125 200.441406 71.722656 200.554688 71.621094 C 200.660156 71.542969 200.738281 71.460938 200.761719 71.386719 C 200.78125 71.3125 200.863281 71.230469 200.957031 71.09375 C 201.082031 70.945312 201.167969 70.835938 201.199219 70.738281 C 201.226562 70.640625 201.316406 70.53125 201.441406 70.378906 C 201.566406 70.230469 201.648438 70.144531 201.628906 70.113281 C 201.613281 70.082031 201.652344 70.039062 201.707031 70.03125 C 201.773438 69.996094 201.828125 69.902344 201.890625 69.789062 C 201.957031 69.648438 202.039062 69.5625 202.167969 69.496094 C 202.269531 69.417969 202.351562 69.335938 202.394531 69.1875 C 202.433594 69.0625 202.484375 68.972656 202.519531 68.953125 C 202.558594 68.914062 202.683594 68.761719 202.871094 68.496094 C 203.042969 68.195312 203.203125 68.03125 203.3125 67.929688 C 203.417969 67.851562 203.503906 67.742188 203.558594 67.652344 C 203.613281 67.5625 203.660156 67.496094 203.71875 67.484375 C 203.75 67.46875 203.875 67.316406 204.007812 67.058594 C 204.171875 66.785156 204.277344 66.605469 204.375 66.550781 C 204.472656 66.5 204.582031 66.316406 204.777344 66.027344 C 204.972656 65.734375 205.082031 65.554688 205.171875 65.527344 C 205.257812 65.5 205.3125 65.40625 205.351562 65.285156 C 205.390625 65.160156 205.4375 65.09375 205.460938 65.101562 C 205.492188 65.085938 205.53125 65.042969 205.5625 64.945312 C 205.617188 64.851562 205.71875 64.695312 205.902344 64.535156 C 206.09375 64.347656 206.21875 64.199219 206.242188 64.125 C 206.269531 64.027344 206.316406 63.960938 206.414062 63.90625 C 206.511719 63.855469 206.558594 63.789062 206.59375 63.667969 C 206.632812 63.542969 206.679688 63.476562 206.710938 63.457031 C 206.773438 63.425781 206.917969 63.222656 207.175781 62.816406 C 207.433594 62.410156 207.566406 62.234375 207.589844 62.242188 C 207.613281 62.25 207.6875 62.191406 207.75 62.074219 C 207.84375 61.941406 207.945312 61.785156 208.027344 61.59375 C 208.113281 61.402344 208.222656 61.222656 208.339844 61.09375 C 208.460938 60.96875 208.523438 60.855469 208.558594 60.730469 C 208.597656 60.605469 208.644531 60.539062 208.746094 60.464844 C 208.84375 60.414062 208.9375 60.277344 209.015625 60.113281 C 209.089844 59.949219 209.1875 59.816406 209.265625 59.730469 C 209.335938 59.671875 209.484375 59.449219 209.679688 59.074219 C 209.871094 58.703125 209.980469 58.519531 210.007812 58.527344 C 210.03125 58.535156 210.03125 58.535156 210.03125 58.535156 C 210.039062 58.511719 210.054688 58.460938 210.058594 58.4375 C 210.082031 58.363281 210.121094 58.320312 210.203125 58.234375 C 210.28125 58.152344 210.328125 58.085938 210.316406 58.027344 C 210.308594 57.972656 210.363281 57.878906 210.433594 57.820312 C 210.507812 57.761719 210.621094 57.554688 210.746094 57.242188 C 210.867188 56.929688 210.96875 56.769531 210.992188 56.777344 C 211.015625 56.785156 211.0625 56.71875 211.140625 56.554688 C 211.21875 56.386719 211.28125 56.273438 211.335938 56.261719 C 211.375 56.21875 211.464844 56.113281 211.523438 55.914062 C 211.605469 55.722656 211.636719 55.625 211.660156 55.632812 C 211.6875 55.640625 211.734375 55.574219 211.796875 55.457031 C 211.855469 55.339844 211.894531 55.21875 211.925781 55.121094 C 211.9375 55.070312 211.9375 54.988281 211.953125 54.9375 C 211.976562 54.945312 211.976562 54.945312 211.976562 54.945312 C 211.976562 54.945312 212 54.953125 212.027344 54.960938 C 212.054688 54.863281 212.085938 54.765625 212.109375 54.691406 C 212.167969 54.492188 212.199219 54.394531 212.230469 54.375 C 212.261719 54.359375 212.292969 54.261719 212.328125 54.136719 C 212.367188 54.011719 212.417969 53.839844 212.527344 53.65625 C 212.636719 53.476562 212.734375 53.234375 212.824219 52.941406 C 212.914062 52.644531 213 52.453125 213.0625 52.335938 C 213.148438 52.230469 213.207031 52.03125 213.289062 51.761719 C 213.347656 51.480469 213.390625 51.332031 213.367188 51.324219 C 213.351562 51.292969 213.386719 51.167969 213.492188 50.90625 C 213.601562 50.640625 213.652344 50.46875 213.640625 50.332031 C 213.628906 50.191406 213.664062 50.070312 213.703125 49.945312 C 213.773438 49.804688 213.785156 49.671875 213.78125 49.511719 C 213.777344 49.347656 213.796875 49.191406 213.832031 49.070312 C 213.871094 48.945312 213.890625 48.789062 213.859375 48.617188 C 213.832031 48.449219 213.859375 48.269531 213.902344 48.121094 C 213.957031 47.945312 213.976562 47.792969 213.988281 47.660156 C 214 47.53125 213.957031 47.410156 213.929688 47.320312 C 213.878906 47.222656 213.875 47.058594 213.890625 46.824219 C 213.910156 46.585938 213.886719 46.390625 213.820312 46.261719 C 213.75 46.132812 213.730469 46.019531 213.746094 45.96875 C 213.761719 45.921875 213.730469 45.75 213.675781 45.492188 C 213.617188 45.230469 213.558594 45.078125 213.496094 45.007812 C 213.4375 44.933594 213.394531 44.8125 213.332031 44.578125 C 213.265625 44.34375 213.179688 44.183594 213.070312 44.097656 C 212.964844 44.011719 212.910156 43.914062 212.910156 43.832031 C 212.90625 43.75 212.898438 43.695312 212.855469 43.65625 C 212.820312 43.589844 212.796875 43.582031 212.773438 43.574219 C 212.746094 43.566406 212.703125 43.527344 212.683594 43.414062 C 212.632812 43.316406 212.597656 43.253906 212.53125 43.207031 C 212.464844 43.160156 212.398438 43.113281 212.347656 43.015625 C 212.296875 42.917969 212.210938 42.839844 212.085938 42.722656 C 211.976562 42.636719 211.871094 42.546875 211.816406 42.453125 C 211.765625 42.355469 211.632812 42.261719 211.441406 42.175781 C 211.261719 42.066406 211.128906 41.972656 211.042969 41.894531 C 210.96875 41.789062 210.757812 41.675781 210.410156 41.488281 C 210.0625 41.300781 209.683594 41.132812 209.238281 41 C 208.792969 40.863281 208.523438 40.78125 208.390625 40.769531 C 208.261719 40.757812 208.136719 40.71875 207.996094 40.652344 C 207.800781 40.589844 207.726562 40.570312 207.695312 40.585938 Z M 168.394531 74.539062 C 168.363281 74.558594 168.214844 74.511719 167.917969 74.425781 C 167.621094 74.335938 167.449219 74.28125 167.359375 74.308594 C 167.269531 74.335938 167.164062 74.332031 167.03125 74.238281 C 166.914062 74.175781 166.792969 74.136719 166.652344 74.148438 C 166.539062 74.167969 166.382812 74.148438 166.210938 74.097656 C 166.039062 74.042969 165.742188 74.035156 165.304688 74.066406 C 164.863281 74.09375 164.613281 74.125 164.566406 74.191406 C 164.519531 74.257812 164.460938 74.269531 164.414062 74.253906 C 164.363281 74.238281 164.25 74.257812 164.089844 74.34375 C 163.925781 74.429688 163.8125 74.449219 163.734375 74.453125 C 163.652344 74.457031 163.371094 74.585938 162.871094 74.894531 C 162.375 75.203125 162.101562 75.386719 162.046875 75.480469 C 161.988281 75.597656 161.945312 75.636719 161.890625 75.648438 C 161.832031 75.65625 161.824219 75.683594 161.8125 75.730469 C 161.796875 75.78125 161.722656 75.839844 161.621094 75.917969 C 161.515625 75.992188 161.4375 76.078125 161.40625 76.175781 C 161.378906 76.273438 161.335938 76.316406 161.273438 76.351562 C 161.210938 76.386719 161.195312 76.433594 161.164062 76.53125 C 161.132812 76.632812 161.085938 76.699219 161.015625 76.757812 C 160.945312 76.816406 160.898438 76.882812 160.828125 77.023438 C 160.757812 77.164062 160.722656 77.289062 160.683594 77.410156 C 160.671875 77.542969 160.617188 77.632812 160.550781 77.667969 C 160.503906 77.734375 160.457031 77.800781 160.460938 77.882812 C 160.429688 77.980469 160.40625 78.054688 160.328125 78.140625 C 160.25 78.222656 160.226562 78.296875 160.199219 78.394531 C 160.167969 78.496094 160.164062 78.601562 160.164062 78.683594 C 160.183594 78.796875 160.148438 78.917969 160.070312 79.085938 C 159.992188 79.25 159.980469 79.382812 160 79.496094 C 160.027344 79.585938 160.015625 79.714844 159.984375 79.8125 C 159.953125 79.914062 159.949219 80.019531 159.960938 80.074219 C 159.992188 80.140625 159.964844 80.238281 159.910156 80.410156 C 159.867188 80.558594 159.878906 80.699219 159.921875 80.820312 C 159.976562 80.914062 159.996094 81.027344 159.964844 81.128906 C 159.933594 81.226562 159.9375 81.308594 159.988281 81.40625 C 160.039062 81.5 160.070312 81.671875 160.074219 81.835938 C 160.078125 81.996094 160.117188 82.144531 160.175781 82.214844 C 160.257812 82.292969 160.285156 82.382812 160.296875 82.523438 C 160.308594 82.660156 160.335938 82.75 160.414062 82.851562 C 160.488281 82.957031 160.542969 83.054688 160.535156 83.160156 C 160.53125 83.265625 160.589844 83.335938 160.683594 83.390625 C 160.75 83.4375 160.867188 83.582031 161.003906 83.839844 C 161.140625 84.097656 161.410156 84.367188 161.769531 84.691406 C 162.132812 85.015625 162.355469 85.164062 162.453125 85.195312 C 162.554688 85.222656 162.644531 85.277344 162.769531 85.398438 C 162.894531 85.515625 163.210938 85.636719 163.679688 85.777344 C 164.148438 85.921875 164.410156 86.027344 164.453125 86.066406 C 164.488281 86.132812 164.5625 86.152344 164.636719 86.175781 C 164.710938 86.199219 164.816406 86.203125 164.898438 86.203125 C 164.980469 86.199219 165.0625 86.195312 165.152344 86.25 C 165.21875 86.296875 165.351562 86.3125 165.480469 86.324219 C 165.613281 86.335938 165.71875 86.339844 165.761719 86.378906 C 165.828125 86.429688 165.875 86.441406 165.957031 86.441406 C 166.039062 86.4375 166.089844 86.453125 166.164062 86.476562 C 166.238281 86.496094 166.34375 86.503906 166.503906 86.5 C 166.667969 86.492188 166.808594 86.480469 166.90625 86.511719 C 167.003906 86.542969 167.109375 86.546875 167.175781 86.511719 C 167.238281 86.476562 167.378906 86.464844 167.582031 86.5 C 167.789062 86.535156 168.105469 86.46875 168.515625 86.351562 C 168.929688 86.234375 169.164062 86.171875 169.214844 86.183594 C 169.261719 86.199219 169.472656 86.128906 169.851562 85.945312 C 170.230469 85.765625 170.421875 85.660156 170.4375 85.613281 C 170.453125 85.5625 170.484375 85.546875 170.515625 85.527344 C 170.550781 85.511719 170.652344 85.433594 170.820312 85.242188 C 170.984375 85.050781 171.121094 84.957031 171.21875 84.902344 C 171.3125 84.851562 171.386719 84.792969 171.398438 84.742188 C 171.40625 84.71875 171.421875 84.667969 171.429688 84.644531 C 171.429688 84.644531 171.453125 84.652344 171.480469 84.660156 C 171.503906 84.667969 171.535156 84.648438 171.558594 84.578125 C 171.582031 84.503906 171.636719 84.492188 171.671875 84.476562 C 171.726562 84.464844 171.78125 84.375 171.890625 84.191406 C 172 84.007812 172.0625 83.894531 172.171875 83.792969 C 172.285156 83.691406 172.339844 83.597656 172.359375 83.527344 C 172.382812 83.453125 172.445312 83.335938 172.558594 83.234375 C 172.667969 83.132812 172.761719 82.917969 172.847656 82.621094 C 172.9375 82.324219 173.039062 82.085938 173.15625 81.878906 C 173.269531 81.671875 173.316406 81.523438 173.328125 81.394531 C 173.339844 81.261719 173.351562 81.050781 173.441406 80.753906 C 173.523438 80.480469 173.558594 80.277344 173.546875 80.21875 C 173.539062 80.164062 173.527344 80.105469 173.503906 80.097656 C 173.480469 80.089844 173.480469 80.089844 173.453125 80.085938 C 173.476562 80.011719 173.492188 79.960938 173.539062 79.894531 C 173.585938 79.828125 173.601562 79.777344 173.625 79.703125 C 173.597656 79.695312 173.597656 79.695312 173.574219 79.6875 C 173.550781 79.679688 173.539062 79.625 173.570312 79.527344 C 173.574219 79.417969 173.570312 79.339844 173.53125 79.296875 C 173.488281 79.257812 173.476562 79.203125 173.5 79.128906 C 173.523438 79.054688 173.511719 78.996094 173.496094 78.964844 C 173.453125 78.925781 173.453125 78.84375 173.457031 78.738281 C 173.460938 78.632812 173.433594 78.542969 173.394531 78.503906 C 173.351562 78.464844 173.296875 78.285156 173.257812 77.976562 C 173.214844 77.667969 173.160156 77.488281 173.109375 77.476562 C 173.070312 77.433594 173.050781 77.402344 173.042969 77.347656 C 173.03125 77.289062 172.972656 77.21875 172.871094 77.105469 C 172.769531 76.996094 172.703125 76.949219 172.71875 76.898438 C 172.710938 76.839844 172.683594 76.835938 172.660156 76.828125 C 172.636719 76.820312 172.59375 76.78125 172.601562 76.753906 C 172.589844 76.699219 172.550781 76.660156 172.492188 76.585938 C 172.429688 76.515625 172.289062 76.445312 172.125 76.367188 C 171.960938 76.292969 171.84375 76.230469 171.808594 76.164062 C 171.773438 76.101562 171.707031 76.054688 171.609375 76.023438 C 171.511719 75.996094 171.417969 75.941406 171.320312 75.828125 C 171.242188 75.726562 171.152344 75.671875 171.078125 75.648438 C 171.003906 75.625 170.960938 75.585938 170.917969 75.546875 C 170.882812 75.480469 170.695312 75.398438 170.308594 75.253906 C 169.925781 75.085938 169.636719 74.972656 169.480469 74.871094 C 169.320312 74.769531 169.179688 74.699219 169.042969 74.710938 C 168.9375 74.707031 168.8125 74.667969 168.722656 74.613281 C 168.476562 74.539062 168.425781 74.523438 168.394531 74.539062 Z M 182.316406 83.839844 C 182.257812 83.847656 182.128906 83.835938 181.929688 83.777344 C 181.734375 83.714844 181.578125 83.695312 181.457031 83.742188 C 181.335938 83.785156 181.222656 83.804688 181.121094 83.773438 C 181.023438 83.746094 180.902344 83.789062 180.757812 83.824219 C 180.609375 83.863281 180.515625 83.914062 180.441406 83.890625 C 180.359375 83.894531 180.269531 83.921875 180.199219 83.980469 C 180.125 84.039062 180.003906 84.082031 179.859375 84.121094 C 179.714844 84.15625 179.601562 84.175781 179.503906 84.226562 C 179.40625 84.28125 179.304688 84.355469 179.222656 84.441406 C 179.121094 84.515625 179.015625 84.59375 178.925781 84.621094 C 178.8125 84.640625 178.703125 84.742188 178.570312 84.914062 C 178.433594 85.089844 178.277344 85.257812 178.125 85.402344 C 177.972656 85.542969 177.863281 85.644531 177.832031 85.746094 C 177.804688 85.84375 177.722656 85.925781 177.621094 86.003906 C 177.492188 86.070312 177.4375 86.164062 177.40625 86.261719 C 177.386719 86.335938 177.332031 86.425781 177.21875 86.527344 C 177.109375 86.628906 177.046875 86.746094 176.976562 86.886719 C 176.90625 87.027344 176.859375 87.09375 176.804688 87.101562 C 176.746094 87.113281 176.714844 87.210938 176.65625 87.410156 C 176.597656 87.605469 176.542969 87.699219 176.503906 87.738281 C 176.445312 87.75 176.378906 87.972656 176.265625 88.34375 C 176.171875 88.746094 176.089844 88.933594 176.046875 88.976562 C 176.007812 89.019531 175.964844 89.25 175.914062 89.691406 C 175.867188 90.109375 175.859375 90.402344 175.929688 90.53125 C 175.972656 90.652344 175.992188 90.765625 175.972656 90.839844 C 175.949219 90.914062 175.941406 91.019531 175.972656 91.191406 C 176 91.359375 176.046875 91.480469 176.121094 91.585938 C 176.175781 91.683594 176.226562 91.777344 176.246094 91.890625 C 176.242188 92 176.316406 92.101562 176.417969 92.214844 C 176.511719 92.351562 176.605469 92.484375 176.660156 92.664062 C 176.714844 92.839844 176.789062 92.945312 176.878906 93 C 176.972656 93.054688 177.03125 93.125 177.066406 93.191406 C 177.09375 93.28125 177.152344 93.351562 177.269531 93.414062 C 177.382812 93.476562 177.417969 93.539062 177.429688 93.597656 C 177.445312 93.628906 177.496094 93.726562 177.640625 93.875 C 177.78125 94.027344 177.933594 94.152344 178.164062 94.277344 C 178.398438 94.402344 178.503906 94.488281 178.539062 94.550781 C 178.550781 94.609375 178.617188 94.65625 178.707031 94.710938 C 178.800781 94.765625 178.878906 94.761719 178.9375 94.753906 C 178.96875 94.734375 178.996094 94.742188 179.027344 94.726562 C 179.019531 94.75 179.011719 94.773438 179.011719 94.773438 C 179.003906 94.800781 179.039062 94.863281 179.082031 94.902344 C 179.148438 94.949219 179.246094 94.980469 179.34375 95.011719 C 179.476562 95.023438 179.515625 95.0625 179.535156 95.09375 C 179.550781 95.128906 179.644531 95.183594 179.839844 95.242188 C 180.03125 95.324219 180.210938 95.351562 180.34375 95.367188 C 180.496094 95.386719 180.621094 95.421875 180.761719 95.492188 C 180.902344 95.5625 181.027344 95.597656 181.113281 95.574219 C 181.195312 95.570312 181.328125 95.582031 181.449219 95.621094 C 181.574219 95.65625 181.703125 95.667969 181.875 95.640625 C 182.046875 95.609375 182.152344 95.617188 182.242188 95.671875 C 182.34375 95.699219 182.472656 95.714844 182.652344 95.660156 C 182.828125 95.605469 182.96875 95.59375 183.074219 95.597656 C 183.171875 95.628906 183.382812 95.558594 183.746094 95.425781 C 184.078125 95.308594 184.285156 95.238281 184.402344 95.21875 C 184.480469 95.214844 184.578125 95.164062 184.691406 95.0625 C 184.792969 94.988281 184.90625 94.886719 185.058594 94.824219 C 185.210938 94.761719 185.347656 94.667969 185.472656 94.519531 C 185.59375 94.394531 185.703125 94.292969 185.769531 94.257812 C 185.859375 94.230469 185.898438 94.1875 185.925781 94.089844 C 185.949219 94.015625 185.996094 93.949219 186.09375 93.898438 C 186.1875 93.84375 186.285156 93.710938 186.390625 93.53125 C 186.507812 93.324219 186.601562 93.1875 186.714844 93.089844 C 186.824219 92.988281 186.886719 92.871094 186.933594 92.722656 C 187.003906 92.582031 187.054688 92.492188 187.152344 92.4375 C 187.25 92.386719 187.277344 92.289062 187.316406 92.164062 C 187.355469 92.042969 187.390625 91.917969 187.46875 91.835938 C 187.523438 91.742188 187.59375 91.601562 187.628906 91.398438 C 187.664062 91.191406 187.738281 90.945312 187.828125 90.648438 C 187.941406 90.359375 187.976562 90.074219 187.960938 89.855469 C 187.945312 89.632812 187.980469 89.429688 188.011719 89.332031 C 188.046875 89.207031 188.054688 89.101562 188.007812 88.980469 C 187.964844 88.859375 187.957031 88.800781 187.996094 88.761719 C 188.003906 88.734375 188.027344 88.742188 188.027344 88.742188 C 188.003906 88.734375 187.984375 88.703125 187.960938 88.695312 C 187.917969 88.65625 187.902344 88.625 187.898438 88.542969 C 187.898438 88.460938 187.878906 88.429688 187.84375 88.363281 C 187.8125 88.300781 187.765625 88.179688 187.71875 87.976562 C 187.671875 87.773438 187.628906 87.652344 187.578125 87.636719 C 187.53125 87.621094 187.460938 87.496094 187.339844 87.269531 C 187.21875 87.042969 187.078125 86.894531 186.960938 86.832031 C 186.820312 86.761719 186.695312 86.644531 186.589844 86.449219 C 186.488281 86.257812 186.410156 86.152344 186.351562 86.082031 C 186.292969 86.011719 186.269531 86.003906 186.21875 85.988281 C 186.164062 85.996094 186.144531 85.964844 186.144531 85.882812 C 186.117188 85.792969 186.050781 85.746094 185.957031 85.691406 C 185.859375 85.664062 185.777344 85.585938 185.765625 85.527344 C 185.730469 85.464844 185.671875 85.390625 185.554688 85.328125 C 185.441406 85.265625 185.382812 85.195312 185.386719 85.171875 C 185.394531 85.144531 185.394531 85.144531 185.394531 85.144531 C 185.320312 85.125 185.246094 85.101562 185.199219 85.085938 C 185.050781 85.042969 184.984375 84.996094 184.957031 84.90625 C 184.929688 84.816406 184.8125 84.753906 184.640625 84.703125 C 184.46875 84.648438 184.308594 84.546875 184.160156 84.421875 C 184.007812 84.296875 183.867188 84.226562 183.746094 84.191406 C 183.589844 84.167969 183.5 84.113281 183.40625 84.058594 C 183.316406 84.007812 183.148438 83.929688 182.929688 83.863281 C 182.511719 83.816406 182.378906 83.804688 182.316406 83.839844 Z M 182.316406 83.839844 " fill-opacity="1" fill-rule="nonzero"/></g></g></g></svg>